<svg xmlns="http://www.w3.org/2000/svg" viewBox="0 0 32 32">
  <defs>
    <linearGradient id="bg" x1="0%" y1="0%" x2="100%" y2="100%">
      <stop offset="0%" style="stop-color:#8FA391"/>
      <stop offset="100%" style="stop-color:#7A8B7D"/>
    </linearGradient>
  </defs>
  <rect width="32" height="32" rx="6" fill="url(#bg)"/>
  <path d="M16 8c-2.2 0-4 1.8-4 4s1.8 4 4 4 4-1.8 4-4-1.8-4-4-4zm0 6c-1.1 0-2-.9-2s.9-2 2-2 2 .9 2 2-.9 2-2 2z" fill="white"/>
  <circle cx="16" cy="20" r="1.5" fill="white"/>
  <path d="M10 24c0-1.1.9-2 2-2h8c1.1 0 2 .9 2 2v2H10v-2z" fill="white" opacity="0.8"/>
</svg>
